<svg xmlns="http://www.w3.org/2000/svg" xmlns:xlink="http://www.w3.org/1999/xlink" version="1.1" x="0px" y="0px" viewBox="0 0 96 120" style="enable-background:new 0 0 96 96;" xml:space="preserve"><style type="text/css">
	.st0{fill-rule:evenodd;clip-rule:evenodd;}
</style><g><path class="st0" d="M34.9,41.8c1.6,3.6,4.2,7.7,7.4,11.5c2.8,3.3,6.1,6.3,9.8,8.8c0.7,0.5,1.3,0.8,1.9,0.8c0.3,0,0.5-0.1,0.7-0.2   l6.7-5.7c1.2-1,2.6-1.4,4.1-1.4c1.4,0,2.9,0.6,4,1.6c2.2,2.1,4.3,4,6.6,5.9c2.2,1.9,4.5,3.8,6.8,5.5c0.7,0.6,1.3,1.3,1.7,2   c0.4,0.8,0.6,1.7,0.6,2.6c0,0.9-0.1,1.8-0.5,2.6c-0.3,0.8-0.9,1.5-1.6,2.1l-9.7,8.2c-1.4,1.2-3,1.9-4.7,2.2   c-1.7,0.3-3.4,0.1-5.1-0.5c-6.5-2.5-12.7-5.8-18.5-9.9c-5.6-4-10.9-8.7-15.5-14.2c-4.6-5.5-8.5-11.4-11.5-17.6   c-3.1-6.4-5.3-13.1-6.7-19.9c-0.3-1.8-0.2-3.5,0.3-5.2c0.6-1.6,1.6-3.1,2.9-4.3l9.8-8.3c0.7-0.6,1.5-1,2.4-1.2l0.1,0   c0.8-0.2,1.7-0.2,2.6-0.1c0.9,0.2,1.7,0.5,2.4,1c0.7,0.5,1.3,1.2,1.7,2c1.4,2.5,2.8,5.1,4.3,7.6c1.5,2.5,3.1,5,4.7,7.5   c0.9,1.3,1.2,2.7,1,4.2c-0.2,1.4-0.9,2.8-2.1,3.8l-6.7,5.7c-0.2,0.2-0.3,0.4-0.3,0.7C34.3,40.4,34.5,41.1,34.9,41.8L34.9,41.8z"/></g></svg>