<svg xmlns="http://www.w3.org/2000/svg" data-name="Layer 1" viewBox="0 0 100 125" x="0px" y="0px"><title>UI2</title><path d="M99.58,56.92A28,28,0,0,0,87.72,39.36a35.22,35.22,0,0,0-26.63-6A34.66,34.66,0,0,0,39,45.6c-7.11,8.6-8,19.48-2.24,29,5.36,8.87,13.37,14.06,23.41,16.23a49.46,49.46,0,0,0,10.31.71A1.61,1.61,0,0,1,71.6,92a16.24,16.24,0,0,0,5.92,4.53,35.52,35.52,0,0,0,11.11,3c1.63.2,3.27.31,5.13.48-.75-.92-1.35-1.59-1.88-2.31a21.25,21.25,0,0,1-4.32-10.38,5.53,5.53,0,0,1,2.12-5.45A26.12,26.12,0,0,0,99,68.5c.47-1.56.66-3.17,1-4.76h0V59.6A13.83,13.83,0,0,0,99.58,56.92Z"/><path d="M27.35,58.74a24.79,24.79,0,0,1,3.12-12.63C36.75,35,46.67,29.05,59.1,27.56c3.62-.44,7.33.44,11-.56h1.08a31.43,31.43,0,0,0-4.52-11.91C61.4,7.41,54,3,45.08,1c-2-.44-4,0-6-1H33.42c-2,1-4.09.66-6.1,1.1C18,3.19,10.2,7.79,4.72,15.81A26.2,26.2,0,0,0,.21,28a6.24,6.24,0,0,0-.21.76v4.33a14,14,0,0,0,.53,2.76A28.64,28.64,0,0,0,11.56,53a5.18,5.18,0,0,1,2,4.1A10,10,0,0,1,13.33,60a23,23,0,0,1-5.28,9.43c-.55.65-1.14,1.29-1.84,2.07.48,0,.78,0,1.07,0,2.87-.33,5.76-.53,8.58-1a28.3,28.3,0,0,0,10.75-4.06A1.49,1.49,0,0,0,27.37,65C27.33,62.89,27.37,60.82,27.35,58.74Z"/></svg>