<svg xmlns="http://www.w3.org/2000/svg" xmlns:xlink="http://www.w3.org/1999/xlink" version="1.1" x="0px" y="0px" viewBox="0 0 512 640" enable-background="new 0 0 512 512" xml:space="preserve"><path d="M256,2C115.7,2,2,115.7,2,256s113.7,254,254,254c140.3,0,254-113.7,254-254S396.3,2,256,2z M375.6,339.6  c9.9,9.9,9.9,26,0,35.9c-5,5-21.1,14.9-35.9,0L256,291.9l-83.6,83.6c-5,5-20.2,15.7-35.9,0c-9.9-9.9-9.9-26,0-35.9l83.6-83.6  l-83.6-83.6c-9.9-9.9-9.9-26,0-35.9c9.9-9.9,26-9.9,35.9,0l83.6,83.6l83.6-83.6c9.9-9.9,26-9.9,35.9,0c9.9,9.9,9.9,26,0,35.9  L291.9,256L375.6,339.6z"/></svg>